<mxfile host="app.diagrams.net" modified="2023-11-03T15:07:14.721Z" agent="Mozilla/5.0 (Macintosh; Intel Mac OS X 10_15_7) AppleWebKit/537.36 (KHTML, like Gecko) Chrome/119.0.0.0 Safari/537.36" etag="0BjeOfDpEoaqalNTRGQM" version="22.0.8" type="github">
  <diagram name="Page-1" id="TRSkcl2a3WL10ghpUb6u">
    <mxGraphModel dx="1443" dy="2050" grid="1" gridSize="10" guides="1" tooltips="1" connect="1" arrows="1" fold="1" page="1" pageScale="1" pageWidth="827" pageHeight="1169" math="0" shadow="0">
      <root>
        <mxCell id="0" />
        <mxCell id="1" parent="0" />
        <mxCell id="L02nFffLBULI9Vl0G02s-2" value="QR Code" style="shape=hexagon;perimeter=hexagonPerimeter2;whiteSpace=wrap;html=1;fixedSize=1;" vertex="1" parent="1">
          <mxGeometry x="110" y="200" width="120" height="80" as="geometry" />
        </mxCell>
        <mxCell id="L02nFffLBULI9Vl0G02s-3" value="" style="endArrow=classic;html=1;rounded=0;" edge="1" parent="1" target="L02nFffLBULI9Vl0G02s-4">
          <mxGeometry width="50" height="50" relative="1" as="geometry">
            <mxPoint x="250" y="240" as="sourcePoint" />
            <mxPoint x="340" y="240" as="targetPoint" />
          </mxGeometry>
        </mxCell>
        <mxCell id="L02nFffLBULI9Vl0G02s-4" value="Converts to URL&lt;br&gt;domain.com/" style="rounded=0;whiteSpace=wrap;html=1;" vertex="1" parent="1">
          <mxGeometry x="294" y="210" width="120" height="60" as="geometry" />
        </mxCell>
        <mxCell id="L02nFffLBULI9Vl0G02s-5" value="Manifest.xml&lt;br&gt;Register the Deeplink" style="rounded=1;whiteSpace=wrap;html=1;" vertex="1" parent="1">
          <mxGeometry x="540" y="30" width="130" height="60" as="geometry" />
        </mxCell>
        <mxCell id="L02nFffLBULI9Vl0G02s-6" value="Airbnb DeepLink Library" style="text;html=1;strokeColor=none;fillColor=none;align=center;verticalAlign=middle;whiteSpace=wrap;rounded=0;" vertex="1" parent="1">
          <mxGeometry x="540" width="140" height="30" as="geometry" />
        </mxCell>
        <mxCell id="L02nFffLBULI9Vl0G02s-7" value="Qr Code Scanning Flow" style="text;html=1;strokeColor=none;fillColor=none;align=center;verticalAlign=middle;whiteSpace=wrap;rounded=0;" vertex="1" parent="1">
          <mxGeometry x="390" y="-60" width="190" height="30" as="geometry" />
        </mxCell>
        <mxCell id="L02nFffLBULI9Vl0G02s-8" value="Step 1" style="text;html=1;strokeColor=none;fillColor=none;align=center;verticalAlign=middle;whiteSpace=wrap;rounded=0;" vertex="1" parent="1">
          <mxGeometry x="470" y="45" width="60" height="30" as="geometry" />
        </mxCell>
        <mxCell id="L02nFffLBULI9Vl0G02s-9" value="Step 2" style="text;html=1;strokeColor=none;fillColor=none;align=center;verticalAlign=middle;whiteSpace=wrap;rounded=0;" vertex="1" parent="1">
          <mxGeometry x="470" y="130" width="60" height="30" as="geometry" />
        </mxCell>
        <mxCell id="L02nFffLBULI9Vl0G02s-10" value="DeepLinkActivity" style="rounded=1;whiteSpace=wrap;html=1;" vertex="1" parent="1">
          <mxGeometry x="540" y="115" width="130" height="60" as="geometry" />
        </mxCell>
        <mxCell id="L02nFffLBULI9Vl0G02s-11" value="Extract Meta Data from DeepLink&lt;br&gt;&lt;br&gt;Data is QrCodeId" style="rounded=1;whiteSpace=wrap;html=1;" vertex="1" parent="1">
          <mxGeometry x="540" y="200" width="130" height="60" as="geometry" />
        </mxCell>
        <mxCell id="L02nFffLBULI9Vl0G02s-12" value="Step 3" style="text;html=1;strokeColor=none;fillColor=none;align=center;verticalAlign=middle;whiteSpace=wrap;rounded=0;" vertex="1" parent="1">
          <mxGeometry x="470" y="215" width="60" height="30" as="geometry" />
        </mxCell>
        <mxCell id="L02nFffLBULI9Vl0G02s-13" value="QR Code ID: 123" style="text;html=1;strokeColor=none;fillColor=none;align=center;verticalAlign=middle;whiteSpace=wrap;rounded=0;" vertex="1" parent="1">
          <mxGeometry x="110" y="280" width="120" height="30" as="geometry" />
        </mxCell>
        <mxCell id="L02nFffLBULI9Vl0G02s-14" value="HTTPS GET Request (id: Int) : Transaction" style="rounded=1;whiteSpace=wrap;html=1;" vertex="1" parent="1">
          <mxGeometry x="540" y="280" width="130" height="60" as="geometry" />
        </mxCell>
        <mxCell id="L02nFffLBULI9Vl0G02s-15" value="Step 4" style="text;html=1;strokeColor=none;fillColor=none;align=center;verticalAlign=middle;whiteSpace=wrap;rounded=0;" vertex="1" parent="1">
          <mxGeometry x="470" y="295" width="60" height="30" as="geometry" />
        </mxCell>
        <mxCell id="L02nFffLBULI9Vl0G02s-16" value="Navigate To PaymentDetailScreen" style="rounded=1;whiteSpace=wrap;html=1;" vertex="1" parent="1">
          <mxGeometry x="540" y="360" width="130" height="60" as="geometry" />
        </mxCell>
        <mxCell id="L02nFffLBULI9Vl0G02s-17" value="Step 5" style="text;html=1;strokeColor=none;fillColor=none;align=center;verticalAlign=middle;whiteSpace=wrap;rounded=0;" vertex="1" parent="1">
          <mxGeometry x="470" y="375" width="60" height="30" as="geometry" />
        </mxCell>
        <mxCell id="L02nFffLBULI9Vl0G02s-18" value="Transaction" style="swimlane;whiteSpace=wrap;html=1;" vertex="1" parent="1">
          <mxGeometry x="730" y="280" width="200" height="110" as="geometry" />
        </mxCell>
        <mxCell id="L02nFffLBULI9Vl0G02s-19" value="val id: Int,&lt;br&gt;val shopName: String,&lt;br&gt;val price: Double,&lt;br&gt;val currency: String&lt;br&gt;val timestamp: Long" style="text;html=1;align=left;verticalAlign=top;resizable=0;points=[];autosize=1;strokeColor=none;fillColor=none;" vertex="1" parent="1">
          <mxGeometry x="735" y="308" width="140" height="90" as="geometry" />
        </mxCell>
        <mxCell id="L02nFffLBULI9Vl0G02s-20" value="User Confirms Payment" style="rounded=1;whiteSpace=wrap;html=1;" vertex="1" parent="1">
          <mxGeometry x="410" y="440" width="130" height="60" as="geometry" />
        </mxCell>
        <mxCell id="L02nFffLBULI9Vl0G02s-21" value="Step 6" style="text;html=1;strokeColor=none;fillColor=none;align=center;verticalAlign=middle;whiteSpace=wrap;rounded=0;" vertex="1" parent="1">
          <mxGeometry x="340" y="455" width="60" height="30" as="geometry" />
        </mxCell>
        <mxCell id="L02nFffLBULI9Vl0G02s-22" value="User Rejects Payment" style="rounded=1;whiteSpace=wrap;html=1;" vertex="1" parent="1">
          <mxGeometry x="640" y="440" width="130" height="60" as="geometry" />
        </mxCell>
        <mxCell id="L02nFffLBULI9Vl0G02s-23" value="HTTPS POST Request (id: Int) : PaymentOutcome" style="rounded=1;whiteSpace=wrap;html=1;" vertex="1" parent="1">
          <mxGeometry x="410" y="540" width="130" height="60" as="geometry" />
        </mxCell>
        <mxCell id="L02nFffLBULI9Vl0G02s-24" value="Step 7" style="text;html=1;strokeColor=none;fillColor=none;align=center;verticalAlign=middle;whiteSpace=wrap;rounded=0;" vertex="1" parent="1">
          <mxGeometry x="340" y="555" width="60" height="30" as="geometry" />
        </mxCell>
        <mxCell id="L02nFffLBULI9Vl0G02s-25" value="UserTransaction" style="swimlane;whiteSpace=wrap;html=1;" vertex="1" parent="1">
          <mxGeometry x="580" y="537" width="200" height="74" as="geometry" />
        </mxCell>
        <mxCell id="L02nFffLBULI9Vl0G02s-26" value="val transactionId: Int,&lt;br&gt;val userId,&lt;br&gt;" style="text;html=1;align=left;verticalAlign=top;resizable=0;points=[];autosize=1;strokeColor=none;fillColor=none;" vertex="1" parent="1">
          <mxGeometry x="585" y="554" width="130" height="40" as="geometry" />
        </mxCell>
        <mxCell id="L02nFffLBULI9Vl0G02s-28" value="*Might be better to process with an existing Payment Processor&lt;br&gt;Paypal, GooglePay, ApplePay WorldPay" style="text;html=1;align=center;verticalAlign=middle;resizable=0;points=[];autosize=1;strokeColor=none;fillColor=none;" vertex="1" parent="1">
          <mxGeometry x="180" y="600" width="360" height="40" as="geometry" />
        </mxCell>
        <mxCell id="L02nFffLBULI9Vl0G02s-29" value="Navigate To PaymentOutcomeScreen" style="rounded=1;whiteSpace=wrap;html=1;" vertex="1" parent="1">
          <mxGeometry x="410" y="670" width="140" height="60" as="geometry" />
        </mxCell>
        <mxCell id="L02nFffLBULI9Vl0G02s-30" value="Step 8" style="text;html=1;strokeColor=none;fillColor=none;align=center;verticalAlign=middle;whiteSpace=wrap;rounded=0;" vertex="1" parent="1">
          <mxGeometry x="340" y="685" width="60" height="30" as="geometry" />
        </mxCell>
        <mxCell id="L02nFffLBULI9Vl0G02s-31" value="PaymentOutcome" style="swimlane;whiteSpace=wrap;html=1;" vertex="1" parent="1">
          <mxGeometry x="800" y="537" width="200" height="113" as="geometry" />
        </mxCell>
        <mxCell id="L02nFffLBULI9Vl0G02s-32" value="val shopName: Int,&lt;br&gt;val price: Double,&lt;br&gt;val currency: String,&lt;br&gt;val timestamp: Long,&lt;br&gt;val isSuccessful: Boolean,&lt;br&gt;val accountBalance: Double," style="text;html=1;align=left;verticalAlign=top;resizable=0;points=[];autosize=1;strokeColor=none;fillColor=none;" vertex="1" parent="1">
          <mxGeometry x="805" y="554" width="180" height="100" as="geometry" />
        </mxCell>
        <mxCell id="L02nFffLBULI9Vl0G02s-33" value="Navigate To PaymentOutcomeScreen" style="rounded=1;whiteSpace=wrap;html=1;" vertex="1" parent="1">
          <mxGeometry x="300" y="960" width="140" height="60" as="geometry" />
        </mxCell>
        <mxCell id="L02nFffLBULI9Vl0G02s-34" value="Push Notification Flow" style="text;html=1;strokeColor=none;fillColor=none;align=center;verticalAlign=middle;whiteSpace=wrap;rounded=0;" vertex="1" parent="1">
          <mxGeometry x="370" y="810" width="190" height="30" as="geometry" />
        </mxCell>
        <mxCell id="L02nFffLBULI9Vl0G02s-36" value="" style="endArrow=classic;html=1;rounded=0;entryX=0.995;entryY=0.489;entryDx=0;entryDy=0;entryPerimeter=0;exitX=0;exitY=1;exitDx=0;exitDy=0;" edge="1" parent="1" source="L02nFffLBULI9Vl0G02s-20" target="L02nFffLBULI9Vl0G02s-38">
          <mxGeometry width="50" height="50" relative="1" as="geometry">
            <mxPoint x="480" y="700" as="sourcePoint" />
            <mxPoint x="337.97" y="521.3600000000001" as="targetPoint" />
          </mxGeometry>
        </mxCell>
        <mxCell id="L02nFffLBULI9Vl0G02s-37" value="1st Notifaction&lt;br&gt;&lt;br&gt;2nd Notification" style="text;html=1;strokeColor=none;fillColor=none;align=center;verticalAlign=middle;whiteSpace=wrap;rounded=0;" vertex="1" parent="1">
          <mxGeometry x="70" y="800" width="120" height="30" as="geometry" />
        </mxCell>
        <mxCell id="L02nFffLBULI9Vl0G02s-38" value="Room SQL&lt;br&gt;&lt;br&gt;unseenPaymentOutcomes&lt;br&gt;Map&amp;lt;String, Int&amp;gt;&lt;br&gt;MapOf(&quot;transactionId&quot;, transactionId)" style="text;html=1;align=center;verticalAlign=middle;resizable=0;points=[];autosize=1;strokeColor=none;fillColor=none;" vertex="1" parent="1">
          <mxGeometry x="30" y="480" width="220" height="90" as="geometry" />
        </mxCell>
        <mxCell id="L02nFffLBULI9Vl0G02s-40" value="Save transactionId to Room" style="text;html=1;align=center;verticalAlign=middle;resizable=0;points=[];autosize=1;strokeColor=none;fillColor=none;" vertex="1" parent="1">
          <mxGeometry x="244" y="490" width="170" height="30" as="geometry" />
        </mxCell>
        <mxCell id="L02nFffLBULI9Vl0G02s-41" value="" style="endArrow=classic;html=1;rounded=0;exitX=0;exitY=0.25;exitDx=0;exitDy=0;" edge="1" parent="1" source="L02nFffLBULI9Vl0G02s-29">
          <mxGeometry width="50" height="50" relative="1" as="geometry">
            <mxPoint x="530" y="700" as="sourcePoint" />
            <mxPoint x="120" y="590" as="targetPoint" />
            <Array as="points">
              <mxPoint x="180" y="670" />
            </Array>
          </mxGeometry>
        </mxCell>
        <mxCell id="L02nFffLBULI9Vl0G02s-42" value="Delete transactionId from Room" style="text;html=1;strokeColor=none;fillColor=none;align=center;verticalAlign=middle;whiteSpace=wrap;rounded=0;" vertex="1" parent="1">
          <mxGeometry x="204" y="655" width="136" height="30" as="geometry" />
        </mxCell>
        <mxCell id="L02nFffLBULI9Vl0G02s-43" value="isTransactionIdSavedInRoom?" style="text;html=1;align=center;verticalAlign=middle;resizable=0;points=[];autosize=1;strokeColor=none;fillColor=none;" vertex="1" parent="1">
          <mxGeometry x="370" y="850" width="190" height="30" as="geometry" />
        </mxCell>
        <mxCell id="L02nFffLBULI9Vl0G02s-44" value="Navigate To AccountBalanceScreen" style="rounded=1;whiteSpace=wrap;html=1;" vertex="1" parent="1">
          <mxGeometry x="520" y="960" width="140" height="60" as="geometry" />
        </mxCell>
        <mxCell id="L02nFffLBULI9Vl0G02s-45" value="" style="endArrow=classic;html=1;rounded=0;entryX=0.571;entryY=-0.067;entryDx=0;entryDy=0;entryPerimeter=0;" edge="1" parent="1" target="L02nFffLBULI9Vl0G02s-33">
          <mxGeometry width="50" height="50" relative="1" as="geometry">
            <mxPoint x="450" y="900" as="sourcePoint" />
            <mxPoint x="580" y="810" as="targetPoint" />
          </mxGeometry>
        </mxCell>
        <mxCell id="L02nFffLBULI9Vl0G02s-46" value="" style="endArrow=classic;html=1;rounded=0;entryX=0.429;entryY=-0.1;entryDx=0;entryDy=0;entryPerimeter=0;" edge="1" parent="1" target="L02nFffLBULI9Vl0G02s-44">
          <mxGeometry width="50" height="50" relative="1" as="geometry">
            <mxPoint x="520" y="900" as="sourcePoint" />
            <mxPoint x="580" y="810" as="targetPoint" />
          </mxGeometry>
        </mxCell>
        <mxCell id="L02nFffLBULI9Vl0G02s-47" value="True" style="text;html=1;align=center;verticalAlign=middle;resizable=0;points=[];autosize=1;strokeColor=none;fillColor=none;" vertex="1" parent="1">
          <mxGeometry x="355" y="898" width="50" height="30" as="geometry" />
        </mxCell>
        <mxCell id="L02nFffLBULI9Vl0G02s-48" value="False" style="text;html=1;align=center;verticalAlign=middle;resizable=0;points=[];autosize=1;strokeColor=none;fillColor=none;" vertex="1" parent="1">
          <mxGeometry x="550" y="898" width="50" height="30" as="geometry" />
        </mxCell>
        <mxCell id="L02nFffLBULI9Vl0G02s-50" value="" style="endArrow=classic;html=1;rounded=0;" edge="1" parent="1">
          <mxGeometry width="50" height="50" relative="1" as="geometry">
            <mxPoint x="310" y="950" as="sourcePoint" />
            <mxPoint x="110" y="620" as="targetPoint" />
          </mxGeometry>
        </mxCell>
        <mxCell id="L02nFffLBULI9Vl0G02s-51" value="Delete transactionId from Room" style="text;html=1;strokeColor=none;fillColor=none;align=center;verticalAlign=middle;whiteSpace=wrap;rounded=0;" vertex="1" parent="1">
          <mxGeometry x="214" y="898" width="136" height="30" as="geometry" />
        </mxCell>
      </root>
    </mxGraphModel>
  </diagram>
</mxfile>
